<?xml version="1.0" encoding="UTF-8"?>
<svg width="84px" height="105px" viewBox="0 0 84 105" version="1.1" xmlns="http://www.w3.org/2000/svg" xmlns:xlink="http://www.w3.org/1999/xlink">
    <!-- Generator: Sketch 51.2 (57519) - http://www.bohemiancoding.com/sketch -->
    <title>best-ui</title>
    <desc>Created with Sketch.</desc>
    <defs>
        <linearGradient x1="50%" y1="1.75305252%" x2="50%" y2="97.5366709%" id="linearGradient-1">
            <stop stop-color="#FFC46D" offset="0%"></stop>
            <stop stop-color="#FF4600" offset="100%"></stop>
        </linearGradient>
    </defs>
    <g id="Page-1" stroke="none" stroke-width="1" fill="none" fill-rule="evenodd">
        <g id="best-ui" fill-rule="nonzero">
            <path d="M1.23082827,52.8312332 C0.426802193,56.0560423 0,59.4301146 0,62.9038719 C0,85.823689 18.5801829,104.403872 41.5,104.403872 C60.9282286,104.403872 77.2383055,91.0534775 81.7567604,73.0261588 C82.2753145,70.9572793 88.4243103,44.3123666 72.2716063,29.5463236 C72.5425833,32.6109241 70.3801596,41.7808213 68.5473787,33.2195067 C67.0884237,24.2006639 67.8250709,8.97250859 54.4537068,0.283139454 C51.0012357,-1.88645166 58.8532481,9.01185869 47.8058742,12.5667067 C36.7585003,16.1215547 22.9826305,17.9607691 21.9875399,29.5463236 C20.4282088,27.3433363 20.3788544,26.7734268 19.909988,24.5491457 C20.1867357,22.3447891 5.23940362,36.1004009 4.40738244,49.0095681 C4.80844222,53.9247735 3.74959083,55.1986619 1.23082827,52.8312332 Z" id="Oval-Copy-3" fill="url(#linearGradient-1)"></path>
            <circle id="Oval-2-Copy-8" fill="#F8BEB6" cx="27.5" cy="67.5" r="13.5"></circle>
            <circle id="Oval-2-Copy-9" fill="#F8BEB6" cx="54.5" cy="67.5" r="13.5"></circle>
            <circle id="Oval-2-Copy-10" fill="#F8BEB6" cx="42" cy="83" r="17"></circle>
            <circle id="Oval-2-Copy-11" fill="#F8BEB6" cx="41" cy="74" r="17"></circle>
            <path d="M44.1838815,71 L40.4503092,71 C40.2670657,73.0669128 39.6376797,74.8296205 38.5621509,76.2881231 C36.1838697,79.5132619 34.6884357,82.2689871 28.728571,81.7774722 C22.7687062,81.2859573 19.8492369,81.5817052 14.5067416,74.0981499 C10.9450781,69.109113 11.1788138,65.743063 15.2079489,64 L36.8857895,64 L39.628718,67 L44.0824339,67 C44.0870052,66.9516461 44.0917656,66.9031625 44.096716,66.8545494 L47.6209671,63 L69.2988077,63 C73.3279428,64.743063 73.5616786,68.109113 70.000015,73.0981499 C64.6575197,80.5817052 61.7380504,80.2859573 55.7781857,80.7774722 C49.8183209,81.2689871 48.3228869,78.5132619 45.9446057,75.2881231 C45.0468535,74.0706997 44.4599455,72.6413253 44.1838815,71 Z" id="Combined-Shape-Copy-3" fill="#000000"></path>
        </g>
    </g>
</svg>